<?xml version="1.0" encoding="UTF-8"?>
<svg xmlns="http://www.w3.org/2000/svg" width="48" height="48" viewBox="0 0 48 48" fill="none">
  <path d="M22.0003 4C17.3203 4 11.4203 7.44 11.5203 16.32L4.08032 25.96C3.86032 26.24 4.12032 26.6 4.52032 26.6L9.48032 29.06C9.74032 30.9 10.7003 36.26 11.2203 38.94C11.4003 39.78 19.6003 39.14 19.6003 39.14L22.0003 44" fill="#191919" fill-opacity="0.3"></path>
  <path fill-rule="evenodd" clip-rule="evenodd" d="M31.1244 4.20212C31.2361 3.89013 31.0737 3.54669 30.7617 3.43503C30.4497 3.32337 30.1063 3.48577 29.9946 3.79777L27.9546 9.49776C27.843 9.80976 28.0054 10.1532 28.3174 10.2649C28.6293 10.3765 28.9728 10.2141 29.0844 9.90212L31.1244 4.20212ZM43.7386 9.96026C44.0039 9.76169 44.058 9.38566 43.8594 9.12037C43.6608 8.85509 43.2848 8.80101 43.0195 8.99959L36.1795 14.1196C35.9142 14.3182 35.8602 14.6942 36.0587 14.9595C36.2573 15.2248 36.6333 15.2788 36.8986 15.0803L43.7386 9.96026ZM36.8606 23.696C36.8848 23.3655 37.1724 23.1173 37.5029 23.1415L44.0429 23.6215C44.3734 23.6458 44.6216 23.9334 44.5974 24.2639C44.5731 24.5943 44.2855 24.8426 43.9551 24.8183L37.4151 24.3383C37.0846 24.3141 36.8363 24.0265 36.8606 23.696ZM23.4395 35.22C23.1081 35.22 22.8395 35.4886 22.8395 35.82C22.8395 36.1514 23.1081 36.42 23.4395 36.42H28.6995C29.0308 36.42 29.2995 36.1514 29.2995 35.82C29.2995 35.4886 29.0308 35.22 28.6995 35.22H23.4395ZM22.8395 30.6599C22.8395 30.3285 23.1081 30.0599 23.4395 30.0599H24.5398C21.9403 28.2642 17.2014 22.7891 20.4596 18.5C23.3396 14.72 28.7996 14.72 31.6796 18.5C34.9354 22.7859 30.2231 28.2729 27.6094 30.0599H28.6995C29.0308 30.0599 29.2995 30.3285 29.2995 30.6599C29.2995 30.9912 29.0308 31.2599 28.6995 31.2599H23.4395C23.1081 31.2599 22.8395 30.9912 22.8395 30.6599ZM26.6796 30.0599V24.0087C27.2232 23.753 27.5996 23.2005 27.5996 22.56C27.5996 21.6763 26.8832 20.96 25.9996 20.96C25.1159 20.96 24.3996 21.6763 24.3996 22.56C24.3996 23.2616 24.8512 23.8578 25.4796 24.0736V30.0599H26.6796ZM25.5996 22.56C25.5996 22.3391 25.7786 22.16 25.9996 22.16C26.2205 22.16 26.3996 22.3391 26.3996 22.56C26.3996 22.7809 26.2205 22.96 25.9996 22.96C25.7786 22.96 25.5996 22.7809 25.5996 22.56Z" fill="#333333"></path>
</svg>
