<?xml version="1.0" encoding="UTF-8"?>
<svg xmlns="http://www.w3.org/2000/svg" width="48" height="48" viewBox="0 0 48 48" fill="none">
  <path d="M44 24C44 26.04 43.7 28.02 43.12 29.88C41.54 26.42 38.06 24 34 24C28.48 24 24 28.48 24 34C24 38.06 26.42 41.54 29.88 43.12C28.02 43.7 26.04 44 24 44C12.96 44 4 35.04 4 24C4 12.96 12.96 4 24 4C35.04 4 44 12.96 44 24Z" fill="black" fill-opacity="0.08"></path>
  <path d="M29.8598 43.1C26.3998 41.52 23.9998 38.04 23.9998 34C23.9998 31.8 24.6998 29.78 25.9198 28.12C25.2798 28.04 24.6398 28 23.9998 28C17.4398 28 11.8198 31.94 9.33984 37.58C12.9998 41.52 18.1998 44 23.9998 44C26.0398 44 27.9998 43.7 29.8598 43.1Z" fill="#191919" fill-opacity="0.3"></path>
  <path d="M26.24 27.68H26.26C27.36 26.32 28.84 25.24 30.52 24.62C31.46 23.3 32 21.72 32 20C32 15.58 28.42 12 24 12C19.58 12 16 15.58 16 20C16 24.42 19.58 28 24 28C24.78 28 25.54 27.88 26.26 27.68" fill="#191919" fill-opacity="0.3"></path>
  <path d="M34 44C39.5228 44 44 39.5228 44 34C44 28.4772 39.5228 24 34 24C28.4772 24 24 28.4772 24 34C24 39.5228 28.4772 44 34 44Z" fill="#333333"></path>
  <path d="M29.1992 32.7001L32.7992 36.3L38.7992 30.3" stroke="white" stroke-width="1.2" stroke-miterlimit="10"></path>
</svg>
