<?xml version="1.0" encoding="UTF-8"?>
<svg xmlns="http://www.w3.org/2000/svg" width="48" height="49" viewBox="0 0 48 49" fill="none">
  <path d="M23.999 6.95044C27.1029 6.95044 29.9654 7.71527 32.5866 9.24492C35.2078 10.7746 37.2832 12.85 38.8129 15.4712C40.3425 18.0924 41.1074 20.955 41.1074 24.0588C41.1074 27.1627 40.3425 30.0252 38.8129 32.6464C37.2832 35.2676 35.2078 37.3431 32.5866 38.8727C29.9654 40.4024 27.1029 41.1672 23.999 41.1672C20.8951 41.1672 18.0326 40.4024 15.4114 38.8727C12.7902 37.3431 10.7148 35.2676 9.18511 32.6464C7.65545 30.0252 6.89062 27.1627 6.89062 24.0588C6.89062 20.955 7.65545 18.0924 9.18511 15.4712C10.7148 12.85 12.7902 10.7746 15.4114 9.24492C18.0326 7.71527 20.8951 6.95044 23.999 6.95044ZM30.1028 18.5565C30.0731 18.5714 30.0025 18.6419 29.8911 18.7681C29.7798 18.8944 29.6795 18.9649 29.5904 18.9798C29.6201 18.9798 29.6535 18.9426 29.6907 18.8684C29.7278 18.7941 29.7649 18.7124 29.802 18.6233C29.8392 18.5342 29.8652 18.4823 29.88 18.4674C29.9691 18.3634 30.1325 18.2521 30.3701 18.1333C30.578 18.0442 30.9641 17.955 31.5285 17.8659C32.0334 17.7471 32.4121 17.8288 32.6646 18.111C32.6349 18.0813 32.7054 17.9847 32.8762 17.8214C33.047 17.658 33.1547 17.5689 33.1992 17.5541C33.2438 17.5244 33.3551 17.4909 33.5334 17.4538C33.7116 17.4167 33.8229 17.361 33.8675 17.2867L33.9121 16.7967C33.7338 16.8115 33.6039 16.7595 33.5222 16.6407C33.4405 16.5219 33.3923 16.366 33.3774 16.1729C33.3774 16.2026 33.3329 16.262 33.2438 16.3511C33.2438 16.2472 33.2103 16.1878 33.1435 16.1729C33.0767 16.1581 32.9913 16.1655 32.8873 16.1952C32.7834 16.2249 32.7165 16.2323 32.6868 16.2175C32.5383 16.1729 32.427 16.1172 32.3527 16.0504C32.2784 15.9836 32.219 15.8611 32.1745 15.6828C32.1299 15.5046 32.1002 15.3932 32.0854 15.3487C32.0557 15.2744 31.9851 15.1928 31.8738 15.1036C31.7624 15.0145 31.6918 14.9403 31.6621 14.8809C31.6473 14.8512 31.6287 14.8103 31.6064 14.7584C31.5842 14.7064 31.5619 14.6581 31.5396 14.6136C31.5173 14.569 31.4876 14.5282 31.4505 14.491C31.4134 14.4539 31.3725 14.4354 31.328 14.4354C31.2834 14.4354 31.2314 14.4725 31.172 14.5467C31.1126 14.621 31.0569 14.6952 31.005 14.7695C30.953 14.8438 30.9196 14.8809 30.9047 14.8809C30.8602 14.8512 30.8156 14.84 30.7711 14.8475C30.7265 14.8549 30.6931 14.8623 30.6708 14.8697C30.6485 14.8772 30.6151 14.8994 30.5706 14.9366C30.526 14.9737 30.4889 14.9997 30.4592 15.0145C30.4146 15.0442 30.3515 15.0665 30.2698 15.0814C30.1882 15.0962 30.125 15.1111 30.0805 15.1259C30.3033 15.0517 30.2958 14.97 30.0582 14.8809C29.9097 14.8215 29.7909 14.7992 29.7018 14.8141C29.8354 14.7546 29.8911 14.6655 29.8689 14.5467C29.8466 14.4279 29.7835 14.324 29.6795 14.2349H29.7909C29.776 14.1755 29.7129 14.1123 29.6015 14.0455C29.4902 13.9787 29.3602 13.9156 29.2117 13.8562C29.0632 13.7968 28.9667 13.7522 28.9221 13.7225C28.8033 13.6482 28.5508 13.5777 28.1647 13.5109C27.7786 13.444 27.5335 13.4403 27.4296 13.4997C27.3553 13.5888 27.3219 13.6668 27.3293 13.7336C27.3368 13.8005 27.3665 13.9044 27.4184 14.0455C27.4704 14.1866 27.4964 14.2794 27.4964 14.324C27.5113 14.4131 27.4704 14.5096 27.3739 14.6136C27.2774 14.7175 27.2291 14.8066 27.2291 14.8809C27.2291 14.9848 27.3331 15.0999 27.541 15.2262C27.7489 15.3524 27.8231 15.5121 27.7637 15.7051C27.7192 15.8239 27.6004 15.9427 27.4073 16.0615C27.2142 16.1803 27.0954 16.2695 27.0509 16.3289C26.9766 16.4477 26.9655 16.585 27.0175 16.741C27.0694 16.8969 27.1474 17.0194 27.2514 17.1085C27.2811 17.1382 27.2922 17.1679 27.2848 17.1976C27.2774 17.2273 27.2514 17.2608 27.2068 17.2979C27.1623 17.335 27.1214 17.3647 27.0843 17.387C27.0472 17.4093 26.9989 17.4353 26.9395 17.465L26.8727 17.5095C26.7093 17.5838 26.5571 17.5392 26.416 17.3759C26.2749 17.2125 26.1747 17.0194 26.1153 16.7967C26.0113 16.4254 25.8925 16.2026 25.7588 16.1284C25.4173 16.0096 25.2019 16.017 25.1128 16.1506C25.0386 15.9576 24.7341 15.7645 24.1995 15.5715C23.8282 15.4378 23.3975 15.4081 22.9074 15.4823C22.9966 15.4675 22.9966 15.3561 22.9074 15.1482C22.8035 14.9254 22.6624 14.8363 22.4842 14.8809C22.5287 14.7918 22.5584 14.6618 22.5733 14.491C22.5882 14.3203 22.5956 14.22 22.5956 14.1903C22.6401 13.9972 22.7292 13.8265 22.8629 13.678C22.8777 13.6631 22.9297 13.6 23.0188 13.4886C23.1079 13.3772 23.1785 13.277 23.2305 13.1879C23.2824 13.0988 23.2861 13.0542 23.2416 13.0542C23.7614 13.1136 24.1327 13.0319 24.3554 12.8092C24.4297 12.7349 24.5151 12.6087 24.6116 12.4305C24.7081 12.2523 24.7861 12.126 24.8455 12.0518C24.9792 11.9627 25.0831 11.9218 25.1574 11.9292C25.2316 11.9367 25.3393 11.9775 25.4804 12.0518C25.6215 12.126 25.7291 12.1631 25.8034 12.1631C26.0113 12.178 26.1264 12.0963 26.1487 11.9181C26.171 11.7399 26.1153 11.5914 25.9816 11.4726C26.1598 11.4874 26.1821 11.3612 26.0484 11.0939C25.989 10.9899 25.9296 10.9231 25.8702 10.8934C25.692 10.834 25.4915 10.8711 25.2688 11.0048C25.15 11.0642 25.1648 11.1236 25.3133 11.183C25.2985 11.1681 25.2279 11.2461 25.1017 11.4169C24.9755 11.5877 24.8529 11.7176 24.7341 11.8067C24.6153 11.8958 24.4965 11.8587 24.3777 11.6953C24.3628 11.6805 24.322 11.5802 24.2552 11.3946C24.1883 11.209 24.1178 11.1087 24.0436 11.0939C23.9247 11.0939 23.8059 11.2053 23.6871 11.428C23.7317 11.3092 23.65 11.1978 23.4421 11.0939C23.2342 10.9899 23.056 10.9305 22.9074 10.9157C23.1896 10.7374 23.1302 10.537 22.7292 10.3142C22.6253 10.2548 22.4731 10.2177 22.2726 10.2028C22.0721 10.188 21.9273 10.2177 21.8382 10.2919C21.7639 10.3959 21.7231 10.4813 21.7157 10.5481C21.7082 10.6149 21.7454 10.6743 21.827 10.7263C21.9087 10.7783 21.9867 10.8191 22.0609 10.8488C22.1352 10.8785 22.2206 10.9082 22.3171 10.9379C22.4137 10.9676 22.4768 10.9899 22.5065 11.0048C22.7144 11.1533 22.7738 11.2572 22.6847 11.3166C22.655 11.3315 22.5919 11.3575 22.4953 11.3946C22.3988 11.4317 22.3134 11.4651 22.2392 11.4949C22.1649 11.5246 22.1203 11.5543 22.1055 11.584C22.0609 11.6434 22.0609 11.7473 22.1055 11.8958C22.15 12.0443 22.1352 12.1483 22.0609 12.2077C21.9867 12.1334 21.9199 12.0035 21.8605 11.8179C21.801 11.6322 21.7491 11.5097 21.7045 11.4503C21.8085 11.584 21.6228 11.6285 21.1476 11.584L20.9248 11.5617C20.8654 11.5617 20.7466 11.5765 20.5684 11.6062C20.3902 11.6359 20.238 11.6434 20.1117 11.6285C19.9855 11.6137 19.8853 11.5543 19.811 11.4503C19.7516 11.3315 19.7516 11.183 19.811 11.0048C19.8259 10.9454 19.8556 10.9305 19.9001 10.9602C19.8407 10.9157 19.759 10.8451 19.6551 10.7486C19.5511 10.6521 19.4769 10.5889 19.4323 10.5592C18.7492 10.782 18.0512 11.0864 17.3383 11.4726C17.4274 11.4874 17.5165 11.48 17.6056 11.4503C17.6799 11.4206 17.7764 11.3723 17.8952 11.3055C18.014 11.2387 18.0883 11.1978 18.118 11.183C18.6229 10.9751 18.9348 10.9231 19.0536 11.027L19.165 10.9157C19.3729 11.1533 19.5214 11.3389 19.6105 11.4726C19.5066 11.4132 19.2838 11.4057 18.9422 11.4503C18.6452 11.5394 18.4818 11.6285 18.4521 11.7176C18.5561 11.8958 18.5932 12.0295 18.5635 12.1186C18.5041 12.074 18.4187 11.9998 18.3073 11.8958C18.196 11.7919 18.0883 11.7102 17.9843 11.6508C17.8804 11.5914 17.769 11.5543 17.6502 11.5394C17.4126 11.5394 17.2492 11.5468 17.1601 11.5617C14.9919 12.7498 13.2469 14.3982 11.9251 16.5071C12.0291 16.611 12.1182 16.6704 12.1924 16.6853C12.2518 16.7001 12.289 16.767 12.3038 16.8858C12.3187 17.0046 12.3372 17.0863 12.3595 17.1308C12.3818 17.1754 12.4672 17.1531 12.6157 17.064C12.7494 17.1828 12.7716 17.3239 12.6825 17.4872C12.6974 17.4724 13.0241 17.6729 13.6627 18.0887C13.9449 18.3412 14.1008 18.4971 14.1305 18.5565C14.175 18.7199 14.1008 18.8535 13.9077 18.9575C13.8929 18.9278 13.8261 18.861 13.7072 18.757C13.5884 18.653 13.5216 18.6233 13.5068 18.6679C13.4622 18.7421 13.4659 18.8795 13.5179 19.08C13.5699 19.2805 13.6478 19.3733 13.7518 19.3585C13.6478 19.3585 13.5773 19.4773 13.5402 19.7149C13.503 19.9525 13.4845 20.2161 13.4845 20.5057C13.4845 20.7953 13.4771 20.9698 13.4622 21.0292L13.5068 21.0515C13.4622 21.2297 13.503 21.4859 13.6293 21.82C13.7555 22.1542 13.9152 22.299 14.1082 22.2544C13.9152 22.299 14.0637 22.6183 14.5538 23.2123C14.6429 23.3311 14.7023 23.3979 14.732 23.4128C14.7765 23.4425 14.8656 23.4982 14.9993 23.5799C15.1329 23.6615 15.2443 23.7358 15.3334 23.8026C15.4225 23.8695 15.4968 23.9474 15.5562 24.0365C15.6156 24.1108 15.6899 24.2779 15.779 24.5378C15.8681 24.7977 15.972 24.9722 16.0908 25.0613C16.0611 25.1504 16.1317 25.2989 16.3025 25.5068C16.4732 25.7147 16.5512 25.8855 16.5364 26.0191C16.5215 26.0191 16.5029 26.0266 16.4807 26.0414C16.4584 26.0563 16.4398 26.0637 16.425 26.0637C16.4695 26.1677 16.5846 26.2716 16.7703 26.3756C16.9559 26.4795 17.071 26.5761 17.1156 26.6652C17.1304 26.7097 17.1453 26.784 17.1601 26.8879C17.175 26.9919 17.1972 27.0736 17.2269 27.133C17.2566 27.1924 17.316 27.2072 17.4051 27.1775C17.4348 26.8805 17.2566 26.4201 16.8705 25.7964C16.6477 25.4251 16.5215 25.2098 16.4918 25.1504C16.4473 25.0761 16.4064 24.961 16.3693 24.8051C16.3322 24.6491 16.2987 24.5415 16.269 24.4821C16.2987 24.4821 16.3433 24.4932 16.4027 24.5155C16.4621 24.5378 16.5252 24.5637 16.5921 24.5935C16.6589 24.6232 16.7146 24.6529 16.7591 24.6826C16.8037 24.7123 16.8185 24.7345 16.8037 24.7494C16.7591 24.8533 16.774 24.9833 16.8482 25.1392C16.9225 25.2952 17.0116 25.4325 17.1156 25.5513C17.2195 25.6701 17.3457 25.8112 17.4943 25.9746C17.6428 26.138 17.7319 26.2345 17.7616 26.2642C17.8507 26.3533 17.9546 26.4981 18.0734 26.6986C18.1923 26.8991 18.1923 26.9993 18.0734 26.9993C18.2071 26.9993 18.3556 27.0773 18.519 27.2332C18.6823 27.3892 18.8086 27.534 18.8977 27.6676C18.9719 27.7864 19.0313 27.9795 19.0759 28.2468C19.1204 28.5141 19.1576 28.6923 19.1873 28.7814C19.217 28.8854 19.2801 28.9856 19.3766 29.0822C19.4732 29.1787 19.566 29.2492 19.6551 29.2938L20.0115 29.472L20.3011 29.6279C20.3753 29.6576 20.5127 29.7356 20.7132 29.8618C20.9137 29.9881 21.0733 30.0735 21.1922 30.118C21.3407 30.1774 21.4595 30.2071 21.5486 30.2071C21.6377 30.2071 21.7454 30.1886 21.8716 30.1514C21.9978 30.1143 22.0981 30.0883 22.1723 30.0735C22.3951 30.0438 22.6104 30.1552 22.8183 30.4076C23.0263 30.6601 23.1822 30.816 23.2861 30.8754C23.8208 31.1576 24.2292 31.2393 24.5114 31.1205C24.4817 31.1353 24.4854 31.191 24.5225 31.2875C24.5596 31.3841 24.619 31.4992 24.7007 31.6328C24.7824 31.7665 24.8492 31.8742 24.9012 31.9558C24.9532 32.0375 24.994 32.1006 25.0237 32.1452C25.098 32.2343 25.2316 32.3457 25.4247 32.4793C25.6178 32.613 25.7514 32.7244 25.8257 32.8135C25.9148 32.7541 25.9668 32.6873 25.9816 32.613C25.9371 32.7318 25.989 32.8803 26.1375 33.0585C26.2861 33.2367 26.4197 33.311 26.5385 33.2813C26.7464 33.2367 26.8504 32.9991 26.8504 32.5684C26.39 32.7912 26.0262 32.6576 25.7588 32.1675C25.7588 32.1526 25.7403 32.1118 25.7032 32.0449C25.666 31.9781 25.6363 31.915 25.614 31.8556C25.5918 31.7962 25.5732 31.7331 25.5584 31.6662C25.5435 31.5994 25.5435 31.5437 25.5584 31.4992C25.5732 31.4546 25.6103 31.4323 25.6697 31.4323C25.8034 31.4323 25.8777 31.4064 25.8925 31.3544C25.9074 31.3024 25.8925 31.2096 25.8479 31.0759C25.8034 30.9423 25.7737 30.8457 25.7588 30.7863C25.744 30.6675 25.6623 30.519 25.5138 30.3408C25.3653 30.1626 25.2762 30.0512 25.2465 30.0066C25.1722 30.1403 25.0534 30.1997 24.8901 30.1849C24.7267 30.17 24.6079 30.1032 24.5336 29.9844C24.5336 29.9992 24.5225 30.0401 24.5002 30.1069C24.4779 30.1737 24.4668 30.222 24.4668 30.2517C24.2737 30.2517 24.1624 30.2443 24.1327 30.2294C24.1475 30.1849 24.1661 30.0549 24.1883 29.8396C24.2106 29.6242 24.2366 29.4572 24.2663 29.3384C24.2812 29.2789 24.322 29.1898 24.3888 29.071C24.4557 28.9522 24.5114 28.8446 24.5559 28.748C24.6005 28.6515 24.6302 28.5587 24.645 28.4696C24.6599 28.3805 24.6265 28.3099 24.5448 28.2579C24.4631 28.206 24.3331 28.1874 24.1549 28.2022C23.8728 28.2171 23.6797 28.3656 23.5757 28.6478C23.5609 28.6923 23.5386 28.7703 23.5089 28.8817C23.4792 28.9931 23.4421 29.0785 23.3975 29.1379C23.353 29.1973 23.2861 29.2492 23.197 29.2938C23.0931 29.3384 22.9149 29.3532 22.6624 29.3384C22.4099 29.3235 22.2317 29.2864 22.1278 29.227C21.9347 29.1082 21.7676 28.8928 21.6265 28.5809C21.4855 28.2691 21.4149 27.9943 21.4149 27.7567C21.4149 27.6082 21.4335 27.4114 21.4706 27.1664C21.5077 26.9213 21.53 26.7357 21.5374 26.6095C21.5449 26.4832 21.504 26.3013 21.4149 26.0637C21.4595 26.034 21.5263 25.9635 21.6154 25.8521C21.7045 25.7407 21.7788 25.6627 21.8382 25.6182C21.8679 25.6033 21.9013 25.5922 21.9384 25.5848C21.9755 25.5773 22.009 25.5773 22.0387 25.5848C22.0684 25.5922 22.0981 25.581 22.1278 25.5513C22.1575 25.5216 22.1797 25.4771 22.1946 25.4177C22.1797 25.4028 22.15 25.3806 22.1055 25.3509C22.0609 25.3063 22.0312 25.284 22.0164 25.284C22.1203 25.3286 22.332 25.3174 22.6513 25.2506C22.9706 25.1838 23.1748 25.1949 23.2639 25.284C23.4866 25.4474 23.65 25.4325 23.754 25.2395C23.754 25.2246 23.7354 25.1541 23.6983 25.0278C23.6611 24.9016 23.6574 24.8014 23.6871 24.7271C23.7614 25.1281 23.9767 25.1949 24.3331 24.9276C24.3777 24.9722 24.4928 25.0093 24.6784 25.039C24.8641 25.0687 24.994 25.1058 25.0683 25.1504C25.1128 25.1801 25.1648 25.2209 25.2242 25.2729C25.2836 25.3249 25.3245 25.3583 25.3467 25.3731C25.369 25.388 25.4061 25.3843 25.4581 25.362C25.5101 25.3397 25.5732 25.2914 25.6475 25.2172C25.796 25.4251 25.8851 25.6033 25.9148 25.7518C26.0781 26.3459 26.2192 26.6726 26.338 26.732C26.442 26.7766 26.5237 26.7914 26.5831 26.7766C26.6425 26.7617 26.6759 26.6912 26.6833 26.5649C26.6907 26.4387 26.6907 26.3347 26.6833 26.2531C26.6759 26.1714 26.6648 26.0786 26.6499 25.9746L26.6276 25.7964V25.3954L26.6054 25.2172C26.3826 25.1726 26.2452 25.0835 26.1932 24.9499C26.1413 24.8162 26.1524 24.6788 26.2267 24.5378C26.3009 24.3967 26.4123 24.2593 26.5608 24.1256C26.5757 24.1108 26.6351 24.0848 26.739 24.0477C26.843 24.0105 26.9581 23.9623 27.0843 23.9029C27.2105 23.8435 27.3034 23.7841 27.3628 23.7247C27.6746 23.4425 27.786 23.1826 27.6969 22.945C27.8009 22.945 27.8825 22.8782 27.9419 22.7445C27.9271 22.7445 27.89 22.7222 27.8306 22.6777C27.7712 22.6331 27.7155 22.596 27.6635 22.5663C27.6115 22.5366 27.5781 22.5217 27.5632 22.5217C27.6969 22.4475 27.7118 22.3287 27.6078 22.1653C27.6821 22.1208 27.7377 22.0391 27.7749 21.9203C27.812 21.8015 27.8677 21.7272 27.9419 21.6975C28.0756 21.8757 28.2315 21.8906 28.4098 21.7421C28.5286 21.6232 28.536 21.5044 28.432 21.3856C28.5063 21.2817 28.6585 21.2037 28.8887 21.1517C29.1189 21.0997 29.2563 21.0292 29.3008 20.9401C29.4048 20.9698 29.4642 20.955 29.479 20.8955C29.4939 20.8361 29.5013 20.747 29.5013 20.6282C29.5013 20.5094 29.5236 20.4203 29.5681 20.3609C29.6275 20.2867 29.7389 20.2198 29.9023 20.1604C30.0656 20.101 30.1622 20.0639 30.1919 20.049L30.5706 19.804C30.6151 19.7446 30.6151 19.7149 30.5706 19.7149C30.8379 19.7446 31.0681 19.6629 31.2611 19.4698C31.4097 19.3065 31.3651 19.158 31.1275 19.0243C31.172 18.9352 31.1498 18.8647 31.0607 18.8127C30.9716 18.7607 30.8602 18.7199 30.7265 18.6902C30.7711 18.6753 30.8565 18.6716 30.9827 18.679C31.1089 18.6865 31.1869 18.6753 31.2166 18.6456C31.4394 18.4971 31.3874 18.3783 31.0607 18.2892C30.8082 18.2149 30.4889 18.304 30.1028 18.5565ZM26.4717 38.093C29.531 37.5584 32.1374 36.155 34.2908 33.8828C34.2462 33.8382 34.1534 33.8048 34.0123 33.7825C33.8712 33.7602 33.7784 33.7343 33.7338 33.7045C33.4665 33.6006 33.2883 33.5412 33.1992 33.5263C33.2141 33.4224 33.1955 33.3258 33.1435 33.2367C33.0915 33.1476 33.0321 33.0808 32.9653 33.0363C32.8985 32.9917 32.8057 32.9323 32.6868 32.858C32.568 32.7838 32.4864 32.7318 32.4418 32.7021C32.4121 32.6724 32.3601 32.6279 32.2859 32.5684C32.2116 32.509 32.1596 32.4682 32.1299 32.4459C32.1002 32.4236 32.0445 32.3902 31.9629 32.3457C31.8812 32.3011 31.8181 32.2863 31.7735 32.3011C31.729 32.316 31.6547 32.3234 31.5507 32.3234L31.4839 32.3457C31.4394 32.3605 31.3985 32.3791 31.3614 32.4014C31.3243 32.4236 31.2834 32.4459 31.2389 32.4682C31.1943 32.4905 31.1646 32.5128 31.1498 32.535C31.1349 32.5573 31.1349 32.5759 31.1498 32.5907C30.8379 32.3383 30.5706 32.1749 30.3478 32.1006C30.2736 32.0858 30.1919 32.0449 30.1028 31.9781C30.0137 31.9113 29.9357 31.8593 29.8689 31.8222C29.802 31.7851 29.7278 31.7739 29.6461 31.7888C29.5644 31.8036 29.479 31.8556 29.3899 31.9447C29.3157 32.019 29.2711 32.1303 29.2563 32.2789C29.2414 32.4274 29.2266 32.5239 29.2117 32.5684C29.1077 32.4942 29.1077 32.3642 29.2117 32.1786C29.3157 31.993 29.3305 31.8556 29.2563 31.7665C29.2117 31.6774 29.1337 31.644 29.0224 31.6662C28.911 31.6885 28.8219 31.7219 28.755 31.7665C28.6882 31.811 28.6028 31.8742 28.4989 31.9558C28.3949 32.0375 28.3281 32.0858 28.2984 32.1006C28.2687 32.1155 28.2055 32.1563 28.109 32.2232C28.0125 32.29 27.9494 32.3457 27.9197 32.3902C27.8751 32.4496 27.8306 32.5387 27.786 32.6576C27.7415 32.7764 27.7043 32.858 27.6746 32.9026C27.6449 32.8432 27.5595 32.7949 27.4184 32.7578C27.2774 32.7207 27.2068 32.6798 27.2068 32.6353C27.2365 32.7838 27.2662 33.0437 27.2959 33.415C27.3256 33.7862 27.3628 34.0684 27.4073 34.2615C27.5113 34.7218 27.4222 35.0783 27.14 35.3307C26.739 35.702 26.5237 35.999 26.494 36.2218C26.4346 36.5485 26.5237 36.7416 26.7613 36.801C26.7613 36.9049 26.7019 37.0572 26.5831 37.2577C26.4643 37.4581 26.4123 37.6178 26.4271 37.7366C26.4271 37.8257 26.442 37.9445 26.4717 38.093Z" fill="#191919" fill-opacity="0.3"></path>
  <path d="M31.5074 6.69678C29.3544 6.69932 27.2904 7.5557 25.768 9.07807C24.2456 10.6004 23.3893 12.6645 23.3867 14.8174C23.3841 16.5768 23.9589 18.2885 25.0227 19.6898C25.0227 19.6898 25.2441 19.9814 25.2803 20.0235L31.5074 27.3675L37.7374 20.0198C37.7699 19.9807 37.9921 19.6898 37.9921 19.6898L37.9928 19.6876C39.0561 18.2869 39.6306 16.576 39.628 14.8174C39.6255 12.6645 38.7691 10.6004 37.2467 9.07807C35.7244 7.5557 33.6603 6.69932 31.5074 6.69678ZM31.5074 17.7704C30.9233 17.7704 30.3524 17.5972 29.8668 17.2727C29.3812 16.9483 29.0027 16.4871 28.7792 15.9475C28.5557 15.4079 28.4972 14.8142 28.6112 14.2413C28.7251 13.6685 29.0063 13.1424 29.4193 12.7294C29.8323 12.3164 30.3585 12.0352 30.9313 11.9212C31.5041 11.8073 32.0979 11.8657 32.6374 12.0893C33.177 12.3128 33.6382 12.6912 33.9627 13.1769C34.2872 13.6625 34.4604 14.2334 34.4604 14.8174C34.4594 15.6003 34.1479 16.3508 33.5944 16.9044C33.0408 17.458 32.2903 17.7694 31.5074 17.7704Z" fill="#333333"></path>
</svg>
