<?xml version="1.0" encoding="UTF-8"?>
<svg xmlns="http://www.w3.org/2000/svg" width="48" height="49" viewBox="0 0 48 49" fill="none">
  <path d="M37.5 13.9297H31.5234V12.5104C31.5234 11.3491 31.0898 10.3706 30.2227 9.5749C29.3555 8.7792 28.2891 8.38135 27.0234 8.38135H20.9766C19.7109 8.38135 18.6445 8.7792 17.7773 9.5749C16.9102 10.3706 16.4766 11.3491 16.4766 12.5104V13.9297H10.5C9.23438 13.9297 8.16797 14.3168 7.30078 15.091C6.43359 15.8652 6 16.8545 6 18.0588V23.5426C6 24.4459 6.49219 24.8975 7.47656 24.8975V35.9297C7.47656 36.6609 7.78125 37.3061 8.39062 37.8652C9 38.4244 9.70312 38.7039 10.5 38.7039H37.5C38.2969 38.7039 39 38.4244 39.6094 37.8652C40.2188 37.3061 40.5234 36.6609 40.5234 35.9297V24.8975C41.5078 24.8975 42 24.4459 42 23.5426V18.0588C42 16.8545 41.5664 15.8652 40.6992 15.091C39.832 14.3168 38.7656 13.9297 37.5 13.9297ZM19.5 12.5104C19.5 12.1233 19.6406 11.8007 19.9219 11.5426C20.2031 11.2846 20.5547 11.1555 20.9766 11.1555H27.0234C27.4453 11.1555 27.7969 11.2846 28.0781 11.5426C28.3594 11.8007 28.5 12.1233 28.5 12.5104V13.9297H19.5V12.5104ZM10.5 35.9297V24.8975H19.5V29.0265C19.5 29.8007 19.793 30.4566 20.3789 30.9942C20.9648 31.5319 21.6797 31.8007 22.5234 31.8007H25.4766C26.3203 31.8007 27.0352 31.5319 27.6211 30.9942C28.207 30.4566 28.5 29.8007 28.5 29.0265V24.8975H37.5V35.9297H10.5ZM22.5234 29.0265V24.8975H25.4766V29.0265H22.5234ZM38.9766 22.1878H9.02344V18.0588C9.02344 17.1125 9.51562 16.6394 10.5 16.6394H37.5C38.4844 16.6394 38.9766 17.1125 38.9766 18.0588V22.1878Z" fill="#191919" fill-opacity="0.3"></path>
  <path d="M35.2656 44.0588C40.7885 44.0588 45.2656 39.5817 45.2656 34.0588C45.2656 28.536 40.7885 24.0588 35.2656 24.0588C29.7428 24.0588 25.2656 28.536 25.2656 34.0588C25.2656 39.5817 29.7428 44.0588 35.2656 44.0588Z" fill="black" fill-opacity="0.08" stroke="#333333" stroke-width="1.2" stroke-miterlimit="10" stroke-linecap="round" stroke-linejoin="round"></path>
  <path d="M30.4648 32.7589L34.0648 36.3589L40.0648 30.3589" stroke="#333333" stroke-width="1.2" stroke-miterlimit="10"></path>
</svg>
